HIERARCHY
ROOT Hips
{
	OFFSET 0.000000 83.214638 0.000000
	CHANNELS 6 Xposition Yposition Zposition Xrotation Yrotation Zrotation
	JOINT Pelvis
	{
		OFFSET 0.000000 0.000000 0.000000
		CHANNELS 3 Xrotation Yrotation Zrotation
		JOINT LeftUpLeg
		{
			OFFSET 8.479700 -4.795502 -0.379100
			CHANNELS 3 Xrotation Yrotation Zrotation
			JOINT LeftLeg
			{
				OFFSET 0.024144 -32.555107 0.112900
				CHANNELS 3 Xrotation Yrotation Zrotation
				JOINT LeftFoot
				{
					OFFSET -0.024144 -32.638630 -3.012600
					CHANNELS 3 Xrotation Yrotation Zrotation
					JOINT LeftToeBase
					{
						OFFSET 0.970200 -13.225400 11.864200
						CHANNELS 3 Xrotation Yrotation Zrotation
						End Site
						{
							OFFSET 0.000000 12.319262 0.000000
						}
					}
					JOINT LFootTongue
					{
						OFFSET 1.142400 -1.059800 6.665200
						CHANNELS 3 Xrotation Yrotation Zrotation
						End Site
						{
							OFFSET 0.000000 12.319262 0.000000
						}
					}
				}
				JOINT LeftPantLeg
				{
					OFFSET 0.918482 -16.533964 -2.284700
					CHANNELS 3 Xrotation Yrotation Zrotation
					End Site
					{
						OFFSET 0.350399 24.744368 0.000000
					}
				}
			}
		}
		JOINT RightUpLeg
		{
			OFFSET -8.479700 -4.795502 -0.379100
			CHANNELS 3 Xrotation Yrotation Zrotation
			JOINT RightLeg
			{
				OFFSET -0.023144 -32.555092 0.112900
				CHANNELS 3 Xrotation Yrotation Zrotation
				JOINT RightFoot
				{
					OFFSET 0.023144 -32.638641 -3.012700
					CHANNELS 3 Xrotation Yrotation Zrotation
					JOINT RightToeBase
					{
						OFFSET -0.970200 -13.225400 11.864200
						CHANNELS 3 Xrotation Yrotation Zrotation
						End Site
						{
							OFFSET 0.000000 12.319244 0.000000
						}
					}
					JOINT RFootTongue
					{
						OFFSET -1.142200 -1.059800 6.665200
						CHANNELS 3 Xrotation Yrotation Zrotation
						End Site
						{
							OFFSET 0.000000 12.319243 0.000000
						}
					}
				}
				JOINT RightPantLeg
				{
					OFFSET -0.919482 -16.533978 -2.284800
					CHANNELS 3 Xrotation Yrotation Zrotation
					End Site
					{
						OFFSET -0.350400 24.744419 0.000000
					}
				}
			}
		}
	}
	JOINT Spine
	{
		OFFSET 0.000000 7.722000 1.166200
		CHANNELS 3 Xrotation Yrotation Zrotation
		JOINT Spine1
		{
			OFFSET 0.000000 12.024101 0.248800
			CHANNELS 3 Xrotation Yrotation Zrotation
			JOINT Spine2
			{
				OFFSET 0.000000 11.502998 -0.491200
				CHANNELS 3 Xrotation Yrotation Zrotation
				JOINT Neck
				{
					OFFSET 0.000000 18.430702 -3.123100
					CHANNELS 3 Xrotation Yrotation Zrotation
					JOINT Head
					{
						OFFSET 0.000000 9.051102 1.034000
						CHANNELS 3 Xrotation Yrotation Zrotation
						JOINT HairB
						{
							OFFSET 0.208400 24.786102 24.822300
							CHANNELS 3 Xrotation Yrotation Zrotation
							End Site
							{
								OFFSET 0.000000 32.263779 0.000000
							}
						}
						JOINT HairA
						{
							OFFSET -7.081100 24.428299 23.196600
							CHANNELS 3 Xrotation Yrotation Zrotation
							End Site
							{
								OFFSET 0.000000 32.263779 0.000000
							}
						}
						JOINT Hat
						{
							OFFSET 16.728800 15.048294 -15.439601
							CHANNELS 3 Xrotation Yrotation Zrotation
							End Site
							{
								OFFSET 0.000000 32.263779 0.000000
							}
						}
					}
				}
				JOINT LeftShoulder
				{
					OFFSET 6.197800 13.665199 -4.064700
					CHANNELS 3 Xrotation Yrotation Zrotation
					JOINT LeftArm
					{
						OFFSET 7.778100 -0.187103 -1.709300
						CHANNELS 3 Xrotation Yrotation Zrotation
						JOINT LeftForeArm
						{
							OFFSET 22.049376 0.000000 0.000000
							CHANNELS 3 Xrotation Yrotation Zrotation
							JOINT LeftHand
							{
								OFFSET 23.009392 0.000000 0.000000
								CHANNELS 3 Xrotation Yrotation Zrotation
								JOINT LeftHandThumb1
								{
									OFFSET 3.507191 -2.063065 3.133727
									CHANNELS 3 Xrotation Yrotation Zrotation
									JOINT LeftHandThumb2
									{
										OFFSET 3.101337 -1.790558 1.790558
										CHANNELS 3 Xrotation Yrotation Zrotation
										JOINT LeftHandThumb3
										{
											OFFSET 3.058640 -1.765907 1.765906
											CHANNELS 3 Xrotation Yrotation Zrotation
											End Site
											{
												OFFSET -0.415260 3.926476 -0.049563
											}
										}
									}
								}
								JOINT LeftHandIndex1
								{
									OFFSET 11.334419 -0.901459 3.706815
									CHANNELS 3 Xrotation Yrotation Zrotation
									JOINT LeftHandIndex2
									{
										OFFSET 3.283112 0.000000 0.000000
										CHANNELS 3 Xrotation Yrotation Zrotation
										JOINT LeftHandIndex3
										{
											OFFSET 3.323853 0.000000 0.000000
											CHANNELS 3 Xrotation Yrotation Zrotation
											End Site
											{
												OFFSET -1.135597 3.097809 0.402452
											}
										}
									}
								}
								JOINT LeftHandMiddle1
								{
									OFFSET 11.335861 0.000000 0.000000
									CHANNELS 3 Xrotation Yrotation Zrotation
									JOINT LeftHandMiddle2
									{
										OFFSET 3.410492 0.000000 0.000000
										CHANNELS 3 Xrotation Yrotation Zrotation
										JOINT LeftHandMiddle3
										{
											OFFSET 3.312172 0.000000 0.000000
											CHANNELS 3 Xrotation Yrotation Zrotation
											End Site
											{
												OFFSET -1.150200 3.080154 0.400270
											}
										}
									}
								}
								JOINT LeftHandRing1
								{
									OFFSET 11.514786 -0.013176 -3.003090
									CHANNELS 3 Xrotation Yrotation Zrotation
									JOINT LeftHandRing2
									{
										OFFSET 3.053307 0.000000 0.000000
										CHANNELS 3 Xrotation Yrotation Zrotation
										JOINT LeftHandRing3
										{
											OFFSET 3.295807 0.000000 0.000000
											CHANNELS 3 Xrotation Yrotation Zrotation
											End Site
											{
												OFFSET -1.281006 3.013344 0.375733
											}
										}
									}
								}
								JOINT LeftHandPinky1
								{
									OFFSET 10.518692 -0.960396 -5.730441
									CHANNELS 3 Xrotation Yrotation Zrotation
									JOINT LeftHandPinky2
									{
										OFFSET 2.861649 0.000000 0.000000
										CHANNELS 3 Xrotation Yrotation Zrotation
										JOINT LeftHandPinky3
										{
											OFFSET 2.863380 0.000000 0.000000
											CHANNELS 3 Xrotation Yrotation Zrotation
											End Site
											{
												OFFSET -0.843597 2.711159 0.369971
											}
										}
									}
								}
							}
							JOINT LSleeve
							{
								OFFSET 6.676277 -0.344902 -1.011730
								CHANNELS 3 Xrotation Yrotation Zrotation
								End Site
								{
									OFFSET 0.000000 14.885353 0.000000
								}
							}
						}
					}
				}
				JOINT RightShoulder
				{
					OFFSET -6.197800 13.665199 -4.064700
					CHANNELS 3 Xrotation Yrotation Zrotation
					JOINT RightArm
					{
						OFFSET -7.778100 -0.187103 -1.709300
						CHANNELS 3 Xrotation Yrotation Zrotation
						JOINT RightForeArm
						{
							OFFSET -22.049376 0.000000 0.000000
							CHANNELS 3 Xrotation Yrotation Zrotation
							JOINT RightHand
							{
								OFFSET -23.009392 0.000000 0.000000
								CHANNELS 3 Xrotation Yrotation Zrotation
								JOINT RightHandThumb1
								{
									OFFSET -3.507191 -2.063065 3.133727
									CHANNELS 3 Xrotation Yrotation Zrotation
									JOINT RightHandThumb2
									{
										OFFSET -3.101337 -1.790558 1.790558
										CHANNELS 3 Xrotation Yrotation Zrotation
										JOINT RightHandThumb3
										{
											OFFSET -3.058640 -1.765907 1.765906
											CHANNELS 3 Xrotation Yrotation Zrotation
											End Site
											{
												OFFSET 0.415260 3.926476 -0.049563
											}
										}
									}
								}
								JOINT RightHandIndex1
								{
									OFFSET -11.334419 -0.901459 3.706815
									CHANNELS 3 Xrotation Yrotation Zrotation
									JOINT RightHandIndex2
									{
										OFFSET -3.283112 0.000000 0.000000
										CHANNELS 3 Xrotation Yrotation Zrotation
										JOINT RightHandIndex3
										{
											OFFSET -3.323853 0.000000 0.000000
											CHANNELS 3 Xrotation Yrotation Zrotation
											End Site
											{
												OFFSET 1.135597 3.097809 0.402452
											}
										}
									}
								}
								JOINT RightHandMiddle1
								{
									OFFSET -11.335861 0.000000 0.000000
									CHANNELS 3 Xrotation Yrotation Zrotation
									JOINT RightHandMiddle2
									{
										OFFSET -3.410492 0.000000 0.000000
										CHANNELS 3 Xrotation Yrotation Zrotation
										JOINT RightHandMiddle3
										{
											OFFSET -3.312172 0.000000 0.000000
											CHANNELS 3 Xrotation Yrotation Zrotation
											End Site
											{
												OFFSET 1.150200 3.080154 0.400270
											}
										}
									}
								}
								JOINT RightHandRing1
								{
									OFFSET -11.514786 -0.013176 -3.003090
									CHANNELS 3 Xrotation Yrotation Zrotation
									JOINT RightHandRing2
									{
										OFFSET -3.053307 0.000000 0.000000
										CHANNELS 3 Xrotation Yrotation Zrotation
										JOINT RightHandRing3
										{
											OFFSET -3.295807 0.000000 0.000000
											CHANNELS 3 Xrotation Yrotation Zrotation
											End Site
											{
												OFFSET 1.281006 3.013344 0.375733
											}
										}
									}
								}
								JOINT RightHandPinky1
								{
									OFFSET -10.518692 -0.960396 -5.730441
									CHANNELS 3 Xrotation Yrotation Zrotation
									JOINT RightHandPinky2
									{
										OFFSET -2.861649 0.000000 0.000000
										CHANNELS 3 Xrotation Yrotation Zrotation
										JOINT RightHandPinky3
										{
											OFFSET -2.863380 0.000000 0.000000
											CHANNELS 3 Xrotation Yrotation Zrotation
											End Site
											{
												OFFSET 0.843597 2.711159 0.369971
											}
										}
									}
								}
							}
							JOINT RSleeve
							{
								OFFSET -6.676277 -0.344902 -1.011730
								CHANNELS 3 Xrotation Yrotation Zrotation
								End Site
								{
									OFFSET 0.000000 14.885353 0.000000
								}
							}
						}
					}
				}
				JOINT Backpack
				{
					OFFSET 0.000000 -2.471497 36.677502
					CHANNELS 3 Xrotation Yrotation Zrotation
					End Site
					{
						OFFSET 0.000000 20.427315 0.000000
					}
				}
				JOINT Hood
				{
					OFFSET 0.000000 18.754097 -10.431000
					CHANNELS 3 Xrotation Yrotation Zrotation
					JOINT Hood1
					{
						OFFSET 0.000000 -5.011002 -7.685901
						CHANNELS 3 Xrotation Yrotation Zrotation
						End Site
						{
							OFFSET 0.000000 9.175140 0.000000
						}
					}
				}
				JOINT LHoodieString
				{
					OFFSET 5.250500 16.397697 3.089900
					CHANNELS 3 Xrotation Yrotation Zrotation
					JOINT LHoodieString1
					{
						OFFSET 0.257700 -6.364304 3.694600
						CHANNELS 3 Xrotation Yrotation Zrotation
						JOINT LHoodieString2
						{
							OFFSET 0.000000 -9.643799 2.679100
							CHANNELS 3 Xrotation Yrotation Zrotation
							End Site
							{
								OFFSET 0.000000 10.009018 0.000000
							}
						}
					}
				}
				JOINT RHoodieString
				{
					OFFSET -5.250500 16.397697 3.089900
					CHANNELS 3 Xrotation Yrotation Zrotation
					JOINT RHoodieString1
					{
						OFFSET -0.257700 -6.364304 3.694600
						CHANNELS 3 Xrotation Yrotation Zrotation
						JOINT RHoodieString2
						{
							OFFSET 0.000000 -9.643799 2.679100
							CHANNELS 3 Xrotation Yrotation Zrotation
							End Site
							{
								OFFSET 0.000000 10.009018 0.000000
							}
						}
					}
				}
			}
			JOINT LBackpack_Strap
			{
				OFFSET 15.223200 -7.719803 -6.610900
				CHANNELS 3 Xrotation Yrotation Zrotation
				End Site
				{
					OFFSET 0.000000 16.040596 0.000000
				}
			}
			JOINT RBackpack_Strap
			{
				OFFSET -15.223000 -7.719803 -6.610900
				CHANNELS 3 Xrotation Yrotation Zrotation
				End Site
				{
					OFFSET 0.000000 16.040596 0.000000
				}
			}
		}
	}
	JOINT BoyFacialAnim_Joint
	{
		OFFSET 1.000000 -82.208099 -1.550900
		CHANNELS 3 Xrotation Yrotation Zrotation
		End Site
		{
			OFFSET 0.000000 30.012791 0.000000
		}
	}
}
MOTION
Frames: 4
Frame Time: 0.033333
0.018870 64.308075 0.339951 25.009086 -11.490221 1.108030 -0.000000 -0.000001 0.000001 -80.951812 1.547905 7.234727 104.901488 -2.611203 -3.178155 -2.552211 3.434135 -8.459760 0.000001 -0.000000 -0.000000 0.000001 -0.000000 -0.000000 0.000002 0.000000 -0.000000 -73.844959 -5.658615 1.226352 80.365228 0.527453 2.628141 -30.742408 3.620520 -3.803076 0.000000 -0.000001 -0.000000 0.000000 -0.000001 -0.000000 -0.000001 0.000001 0.000000 9.681657 -0.120829 1.579012 19.360402 -1.436307 1.510408 19.360407 -1.436306 1.510408 5.139816 -0.147798 -3.370196 -59.332542 7.787917 3.742580 0.000002 0.000000 -0.000000 0.000002 0.000000 -0.000000 0.000002 0.000000 -0.000000 0.347740 -8.327262 -7.303562 -33.931062 -7.877279 -34.228004 0.067453 -64.549099 0.138831 32.743835 21.610553 31.447898 3.178026 6.200522 4.097302 -5.837669 5.406276 -7.091338 0.000001 0.000002 -0.000001 -5.751580 3.681431 -7.072368 0.033960 0.293773 -14.312643 0.000001 0.000000 -0.000003 0.115240 7.001479 -2.931718 -0.124827 -0.979435 -12.066899 0.000001 0.000000 -0.000003 0.969118 7.752348 -2.725212 -0.102836 -1.327174 -18.593587 -0.000001 -0.000001 0.000005 2.502463 12.466839 -18.028151 -0.006324 -0.633040 -5.157694 0.000000 0.000001 0.000003 0.000000 0.000000 0.000002 0.667659 2.339717 9.719583 -28.329127 1.793324 33.472756 0.117800 58.326079 -0.190339 24.408186 5.100358 1.470424 -15.768342 -7.877201 -15.883878 -0.579610 -3.989703 4.406874 0.000001 -0.000002 -0.000004 -5.268108 5.295355 -2.692163 -0.172794 0.132399 23.472128 -0.000000 0.000001 0.000002 -1.224284 -3.375885 5.588690 -0.185245 1.253603 25.061940 -0.000002 0.000001 0.000003 2.069286 -5.675100 10.828687 -0.976179 3.094439 29.825285 -0.000003 -0.000000 0.000004 6.366090 -4.915311 24.032627 -0.339762 2.680339 15.474473 -0.000001 -0.000001 0.000002 -0.000001 -0.000001 -0.000002 -0.000001 0.000000 -0.000001 -0.000001 0.000000 -0.000001 -0.000001 0.000000 -0.000001 -0.000001 0.000000 -0.000001 -0.000001 0.000000 0.000000 0.000001 -0.000000 0.000002 -0.000001 0.000000 -0.000001 -0.000001 0.000000 0.000000 0.000001 -0.000000 0.000002 0.000001 0.000000 -0.000000 0.000001 0.000000 -0.000000 -0.000000 -0.000001 0.000001 
0.031026 64.806694 4.870998 25.194268 -11.736412 2.291614 -0.000003 0.000000 -0.000000 -87.424133 2.249314 8.238743 99.140005 -2.824665 -3.115285 -8.174425 5.244719 -5.927514 -0.000000 0.000000 -0.000001 -0.000000 0.000000 -0.000000 -0.000001 0.000000 0.000000 -69.453475 -3.193961 0.872069 81.139683 -0.167270 2.619350 -34.869506 3.883557 -2.555435 -0.000000 0.000001 0.000000 -0.000000 0.000001 0.000000 0.000000 -0.000001 0.000000 9.698702 -0.212474 1.157549 19.396269 -1.452329 1.218836 19.396267 -1.452326 1.218834 6.696428 0.053179 -5.098314 -60.843510 5.975170 3.882059 -0.000000 -0.000001 0.000000 -0.000000 -0.000001 0.000000 -0.000000 -0.000001 0.000000 0.359858 -8.145900 -7.262848 -33.514919 -7.881095 -34.104453 0.067389 -64.370353 0.138794 32.808414 21.641284 31.569486 3.339661 6.631516 4.223101 -5.680553 5.676368 -7.078119 0.000000 0.000000 0.000002 -5.753967 3.666299 -7.378416 0.025079 0.265643 -14.508783 0.000002 0.000000 -0.000002 0.116507 6.990859 -3.183595 -0.130317 -1.005361 -12.308874 -0.000000 0.000001 -0.000001 0.963747 7.718908 -2.954533 -0.112240 -1.352374 -19.127547 0.000002 -0.000002 0.000003 2.521332 12.488916 -18.395914 -0.006520 -0.638167 -5.399727 0.000001 0.000001 -0.000000 -0.000000 -0.000001 0.000000 0.663704 2.351640 9.487704 -28.429453 1.877148 33.392173 0.118003 58.780847 -0.190536 24.081444 5.135820 0.998377 -15.929616 -7.528287 -15.500807 -0.804503 -3.475924 4.390793 -0.000004 0.000002 0.000007 -5.229839 5.394642 -3.027093 -0.162889 0.109777 23.226487 -0.000003 -0.000000 0.000002 -1.221400 -3.415371 5.203615 -0.183401 1.249624 24.991659 -0.000002 0.000002 0.000002 2.129607 -5.875424 10.635977 -0.965672 3.078542 29.608880 0.000003 -0.000001 0.000002 6.367496 -4.908302 23.863494 -0.334711 2.669259 15.276828 -0.000005 0.000001 0.000000 0.000003 -0.000001 -0.000008 -0.000001 0.000001 -0.000002 -0.000001 0.000001 -0.000002 -0.000001 0.000001 -0.000002 -0.000001 0.000001 -0.000002 -0.000001 0.000001 -0.000001 -0.000000 0.000000 -0.000001 -0.000001 0.000001 -0.000002 -0.000001 0.000001 -0.000001 -0.000000 0.000000 -0.000001 0.000002 0.000000 0.000000 0.000002 0.000000 0.000000 -0.000003 0.000000 -0.000000 
0.215664 65.509941 9.316366 25.545428 -12.274645 3.560358 -0.000001 0.000001 -0.000000 -90.883139 3.318111 8.761508 89.120984 -2.896054 -2.955500 -12.540763 8.365043 -2.930006 -0.000001 -0.000000 -0.000000 -0.000001 -0.000000 0.000000 -0.000001 0.000000 0.000000 -65.066124 -0.498739 0.395803 80.808603 -0.946390 2.579630 -37.219705 3.786148 -1.128559 -0.000000 0.000000 -0.000000 -0.000000 0.000000 -0.000000 -0.000003 -0.000000 -0.000000 9.699144 -0.294078 0.663695 19.398562 -1.314519 0.786934 19.398550 -1.314520 0.786935 7.814900 -0.195002 -5.076048 -61.852936 5.578341 3.524762 0.000001 0.000001 -0.000000 0.000001 0.000001 -0.000000 0.000001 0.000001 -0.000000 0.390698 -7.667920 -7.152277 -32.409873 -7.893933 -33.768305 0.067155 -63.903209 0.138572 32.968439 21.727759 31.883224 3.763478 7.769335 4.538680 -5.258876 6.399028 -7.045662 0.000001 0.000000 0.000002 -5.760156 3.626219 -8.196877 0.006038 0.188178 -15.038820 0.000001 -0.000001 -0.000002 0.119202 6.961163 -3.863727 -0.145442 -1.075025 -12.959151 0.000002 0.000000 0.000005 0.949187 7.629510 -3.577202 -0.134097 -1.422788 -20.563253 0.000000 -0.000000 0.000001 2.571700 12.545655 -19.383100 -0.007130 -0.652034 -6.052536 0.000003 0.000001 0.000003 -0.000002 0.000001 -0.000001 0.656248 2.381698 8.878883 -28.670351 2.087082 33.193251 0.118781 60.004127 -0.191213 23.223910 5.227023 -0.221062 -16.369406 -6.598463 -14.499493 -1.399108 -2.129392 4.358316 0.000003 -0.000001 -0.000001 -5.135101 5.638139 -3.894703 -0.137216 0.049775 22.576820 -0.000000 0.000000 -0.000002 -1.213947 -3.521206 4.191183 -0.178031 1.235403 24.822116 0.000007 0.000000 -0.000004 2.285765 -6.408155 10.134723 -0.938168 3.036041 29.033451 0.000003 -0.000000 0.000002 6.369530 -4.883458 23.411081 -0.326547 2.638191 14.748530 -0.000001 -0.000000 0.000004 0.000002 0.000001 -0.000000 -0.000000 -0.000000 0.000000 -0.000000 -0.000000 0.000000 -0.000000 -0.000000 0.000000 -0.000000 -0.000000 0.000000 -0.000000 -0.000000 0.000001 0.000000 -0.000001 0.000000 -0.000000 -0.000000 0.000000 -0.000000 -0.000000 0.000001 0.000000 -0.000001 0.000000 -0.000005 0.000000 0.000000 -0.000005 0.000000 0.000000 -0.000001 0.000001 -0.000000 
0.466224 66.248817 13.865913 25.992584 -13.030668 4.639764 0.000002 0.000000 0.000000 -91.973456 3.896284 8.665000 76.195125 -2.590409 -2.660977 -14.914825 10.702054 0.501617 -0.000000 0.000000 -0.000001 -0.000000 0.000000 -0.000000 -0.000001 0.000000 -0.000000 -60.507533 1.640932 -0.509446 79.683227 -1.265654 2.539235 -38.367826 3.526955 -0.034908 -0.000000 0.000000 -0.000000 -0.000000 0.000000 -0.000000 0.000003 0.000001 -0.000000 9.693513 -0.302691 0.210324 19.387794 -1.042933 0.307810 19.387782 -1.042933 0.307810 7.965245 -0.399139 -4.801996 -61.858892 5.167293 3.123381 -0.000001 0.000000 -0.000000 -0.000001 0.000000 -0.000000 -0.000001 0.000000 -0.000000 0.431775 -6.992520 -6.989327 -30.837744 -7.914653 -33.312223 0.066813 -63.232355 0.135076 33.175701 21.846780 32.323454 4.357352 9.381586 4.949281 -4.646789 7.442684 -7.006777 0.000001 0.000001 -0.000001 -5.772857 3.569752 -9.378242 -0.022763 0.075285 -15.815050 -0.000001 0.000001 -0.000003 0.121034 6.913829 -4.857618 -0.168495 -1.175949 -13.904222 0.000000 -0.000001 -0.000000 0.927572 7.500503 -4.495153 -0.173482 -1.522421 -22.652128 0.000001 -0.000001 -0.000006 2.644405 12.622501 -20.815655 -0.008382 -0.672227 -7.006244 -0.000000 -0.000001 -0.000000 -0.000002 0.000000 0.000001 0.648685 2.404812 8.022493 -28.965456 2.363811 32.925702 0.124051 61.776711 -0.192884 22.022912 5.356422 -1.894950 -17.025271 -5.266639 -13.099015 -1.453839 -1.634212 4.095489 -0.000000 0.000002 0.000004 -5.014558 5.944400 -5.089238 -0.102114 -0.035949 21.654036 -0.000000 -0.000000 0.000004 -1.203937 -3.672744 2.765203 -0.171507 1.217944 24.614477 0.000002 0.000002 -0.000003 2.494877 -7.172083 9.439711 -0.904076 2.973613 28.209907 0.000003 0.000000 0.000000 6.368957 -4.835076 22.757921 -0.315459 2.593270 13.985967 -0.000004 0.000000 -0.000003 0.000002 -0.000002 -0.000001 0.000000 0.000000 -0.000001 0.000000 0.000000 -0.000001 0.000000 0.000000 -0.000001 0.000000 0.000000 -0.000001 0.000000 0.000000 -0.000001 0.000000 -0.000000 0.000001 0.000000 0.000000 -0.000001 0.000000 0.000000 -0.000001 0.000000 -0.000000 0.000001 -0.000001 -0.000001 0.000001 -0.000001 -0.000001 0.000001 0.000002 0.000000 0.000000 
